<svg id="Grupo_4" data-name="Grupo 4" xmlns="http://www.w3.org/2000/svg" xmlns:xlink="http://www.w3.org/1999/xlink" width="123.492" height="47.397" viewBox="0 0 123.492 47.397">
  <defs>
    <clipPath id="clip-path">
      <path id="Caminho_9" data-name="Caminho 9" d="M161.271,190.993a11.19,11.19,0,0,0-7.764,3.094v-1.815c0-1.1-.457-1.462-1.734-1.189l-4.932,1.1a1.181,1.181,0,0,0-1.1,1.37v5.587a12.551,12.551,0,0,0-12.057-8.144,13.062,13.062,0,0,0-12.24,7.956V182.408c0-1.1-.457-1.462-1.736-1.188l-4.932,1.1a1.181,1.181,0,0,0-1.1,1.37V197.2c0,.548.092.73.64,1.1a7.944,7.944,0,0,1,3.562,6.576,8.068,8.068,0,0,1-3.562,6.576c-.547.366-.64.549-.64,1.1v4.841c0,1.1.457,1.462,1.736,1.187l4.932-1.1a1.18,1.18,0,0,0,1.1-1.37v-5.077c1.953,4.6,6.231,7.635,12.24,7.635a16.416,16.416,0,0,0,6.485-1.279c1.279-.547,1.187-1.1.913-1.736l-1.37-3.47c-.275-.732-.64-.823-1.462-.64a17.505,17.505,0,0,1-3.745.457c-4.019,0-6.668-1.919-7.125-4.842h18.361v20.1c0,1.1.456,1.462,1.734,1.187l4.932-1.095a1.181,1.181,0,0,0,1.1-1.371V215.583a11.222,11.222,0,0,0,7.764,3.087c7.125,0,12.514-5.938,12.514-13.793C173.784,196.931,168.4,190.993,161.271,190.993Zm-33.888,10.87c.366-2.558,3.106-4.476,6.3-4.476s5.936,1.917,6.3,4.476ZM160.083,212c-3.745,0-6.577-3.106-6.577-7.125,0-4.11,2.832-7.216,6.577-7.216,3.653,0,6.393,3.106,6.393,7.216C166.476,208.9,163.737,212,160.083,212ZM103.817,181.22l-4.932,1.1a1.181,1.181,0,0,0-1.1,1.37v15.452a12.55,12.55,0,0,0-12.057-8.144c-7.672,0-13.427,5.938-13.427,13.884a16.9,16.9,0,0,0,.359,3.514,10.366,10.366,0,0,1-7.574,3.7,7.216,7.216,0,0,1,0-14.431,15,15,0,0,1,3.836.548c.731.183,1.006.092,1.462-.821l1.551-3.38a.843.843,0,0,0-.364-1.279,17.63,17.63,0,0,0-7.4-1.736,13.839,13.839,0,1,0,.183,27.676,15.743,15.743,0,0,0,10.935-4.611,12.932,12.932,0,0,0,10.438,4.611,16.416,16.416,0,0,0,6.485-1.279c1.279-.547,1.187-1.1.913-1.736l-1.37-3.47c-.274-.732-.64-.823-1.461-.64a17.5,17.5,0,0,1-3.745.457c-4.019,0-6.668-1.919-7.125-4.842h18.36v10.23c0,1.1.456,1.462,1.736,1.187l4.932-1.1a1.18,1.18,0,0,0,1.1-1.37v-3.562c0-.547-.092-.73-.64-1.1a8.067,8.067,0,0,1-3.562-6.576,7.943,7.943,0,0,1,3.562-6.576c.547-.366.64-.549.64-1.1v-14.8C105.553,181.312,105.1,180.946,103.817,181.22ZM79.429,201.863c.366-2.558,3.106-4.476,6.3-4.476s5.938,1.917,6.3,4.476Z" transform="translate(-50.292 -181.133)" fill="#fff"/>
    </clipPath>
  </defs>
  <path id="Caminho_1" data-name="Caminho 1" d="M161.271,190.993a11.19,11.19,0,0,0-7.764,3.094v-1.815c0-1.1-.457-1.462-1.734-1.189l-4.932,1.1a1.181,1.181,0,0,0-1.1,1.37v5.587a12.551,12.551,0,0,0-12.057-8.144,13.062,13.062,0,0,0-12.24,7.956V182.408c0-1.1-.457-1.462-1.736-1.188l-4.932,1.1a1.181,1.181,0,0,0-1.1,1.37V197.2c0,.548.092.73.64,1.1a7.944,7.944,0,0,1,3.562,6.576,8.068,8.068,0,0,1-3.562,6.576c-.547.366-.64.549-.64,1.1v4.841c0,1.1.457,1.462,1.736,1.187l4.932-1.1a1.18,1.18,0,0,0,1.1-1.37v-5.077c1.953,4.6,6.231,7.635,12.24,7.635a16.416,16.416,0,0,0,6.485-1.279c1.279-.547,1.187-1.1.913-1.736l-1.37-3.47c-.275-.732-.64-.823-1.462-.64a17.505,17.505,0,0,1-3.745.457c-4.019,0-6.668-1.919-7.125-4.842h18.361v20.1c0,1.1.456,1.462,1.734,1.187l4.932-1.095a1.181,1.181,0,0,0,1.1-1.371V215.583a11.222,11.222,0,0,0,7.764,3.087c7.125,0,12.514-5.938,12.514-13.793C173.784,196.931,168.4,190.993,161.271,190.993Zm-33.888,10.87c.366-2.558,3.106-4.476,6.3-4.476s5.936,1.917,6.3,4.476ZM160.083,212c-3.745,0-6.577-3.106-6.577-7.125,0-4.11,2.832-7.216,6.577-7.216,3.653,0,6.393,3.106,6.393,7.216C166.476,208.9,163.737,212,160.083,212ZM103.817,181.22l-4.932,1.1a1.181,1.181,0,0,0-1.1,1.37v15.452a12.55,12.55,0,0,0-12.057-8.144c-7.672,0-13.427,5.938-13.427,13.884a16.9,16.9,0,0,0,.359,3.514,10.366,10.366,0,0,1-7.574,3.7,7.216,7.216,0,0,1,0-14.431,15,15,0,0,1,3.836.548c.731.183,1.006.092,1.462-.821l1.551-3.38a.843.843,0,0,0-.364-1.279,17.63,17.63,0,0,0-7.4-1.736,13.839,13.839,0,1,0,.183,27.676,15.743,15.743,0,0,0,10.935-4.611,12.932,12.932,0,0,0,10.438,4.611,16.416,16.416,0,0,0,6.485-1.279c1.279-.547,1.187-1.1.913-1.736l-1.37-3.47c-.274-.732-.64-.823-1.461-.64a17.5,17.5,0,0,1-3.745.457c-4.019,0-6.668-1.919-7.125-4.842h18.36v10.23c0,1.1.456,1.462,1.736,1.187l4.932-1.1a1.18,1.18,0,0,0,1.1-1.37v-3.562c0-.547-.092-.73-.64-1.1a8.067,8.067,0,0,1-3.562-6.576,7.943,7.943,0,0,1,3.562-6.576c.547-.366.64-.549.64-1.1v-14.8C105.553,181.312,105.1,180.946,103.817,181.22ZM79.429,201.863c.366-2.558,3.106-4.476,6.3-4.476s5.938,1.917,6.3,4.476Z" transform="translate(-50.292 -181.133)" fill="#fff"/>
  <g id="Grupo_1" data-name="Grupo 1" clip-path="url(#clip-path)">
    <path id="Caminho_2" data-name="Caminho 2" d="M161.271,190.993a11.19,11.19,0,0,0-7.764,3.094v-1.815c0-1.1-.457-1.462-1.734-1.189l-4.932,1.1a1.181,1.181,0,0,0-1.1,1.37v5.587a12.551,12.551,0,0,0-12.057-8.144,13.062,13.062,0,0,0-12.24,7.956V182.408c0-1.1-.457-1.462-1.736-1.188l-4.932,1.1a1.181,1.181,0,0,0-1.1,1.37V197.2c0,.548.092.73.64,1.1a7.944,7.944,0,0,1,3.562,6.576,8.068,8.068,0,0,1-3.562,6.576c-.547.366-.64.549-.64,1.1v4.841c0,1.1.457,1.462,1.736,1.187l4.932-1.1a1.18,1.18,0,0,0,1.1-1.37v-5.077c1.953,4.6,6.231,7.635,12.24,7.635a16.416,16.416,0,0,0,6.485-1.279c1.279-.547,1.187-1.1.913-1.736l-1.37-3.47c-.275-.732-.64-.823-1.462-.64a17.505,17.505,0,0,1-3.745.457c-4.019,0-6.668-1.919-7.125-4.842h18.361v20.1c0,1.1.456,1.462,1.734,1.187l4.932-1.095a1.181,1.181,0,0,0,1.1-1.371V215.583a11.222,11.222,0,0,0,7.764,3.087c7.125,0,12.514-5.938,12.514-13.793C173.784,196.931,168.4,190.993,161.271,190.993Zm-33.888,10.87c.366-2.558,3.106-4.476,6.3-4.476s5.936,1.917,6.3,4.476ZM160.083,212c-3.745,0-6.577-3.106-6.577-7.125,0-4.11,2.832-7.216,6.577-7.216,3.653,0,6.393,3.106,6.393,7.216C166.476,208.9,163.737,212,160.083,212ZM103.817,181.22l-4.932,1.1a1.181,1.181,0,0,0-1.1,1.37v15.452a12.55,12.55,0,0,0-12.057-8.144c-7.672,0-13.427,5.938-13.427,13.884a16.9,16.9,0,0,0,.359,3.514,10.366,10.366,0,0,1-7.574,3.7,7.216,7.216,0,0,1,0-14.431,15,15,0,0,1,3.836.548c.731.183,1.006.092,1.462-.821l1.551-3.38a.843.843,0,0,0-.364-1.279,17.63,17.63,0,0,0-7.4-1.736,13.839,13.839,0,1,0,.183,27.676,15.743,15.743,0,0,0,10.935-4.611,12.932,12.932,0,0,0,10.438,4.611,16.416,16.416,0,0,0,6.485-1.279c1.279-.547,1.187-1.1.913-1.736l-1.37-3.47c-.274-.732-.64-.823-1.461-.64a17.5,17.5,0,0,1-3.745.457c-4.019,0-6.668-1.919-7.125-4.842h18.36v10.23c0,1.1.456,1.462,1.736,1.187l4.932-1.1a1.18,1.18,0,0,0,1.1-1.37v-3.562c0-.547-.092-.73-.64-1.1a8.067,8.067,0,0,1-3.562-6.576,7.943,7.943,0,0,1,3.562-6.576c.547-.366.64-.549.64-1.1v-14.8C105.553,181.312,105.1,180.946,103.817,181.22ZM79.429,201.863c.366-2.558,3.106-4.476,6.3-4.476s5.938,1.917,6.3,4.476Z" transform="translate(-50.292 -181.133)" fill="#fff"/>
    <path id="Caminho_3" data-name="Caminho 3" d="M161.271,190.993a11.19,11.19,0,0,0-7.764,3.094v-1.815c0-1.1-.457-1.462-1.734-1.189l-4.932,1.1a1.181,1.181,0,0,0-1.1,1.37v5.587a12.551,12.551,0,0,0-12.057-8.144,13.062,13.062,0,0,0-12.24,7.956V182.408c0-1.1-.457-1.462-1.736-1.188l-4.932,1.1a1.181,1.181,0,0,0-1.1,1.37V197.2c0,.548.092.73.64,1.1a7.944,7.944,0,0,1,3.562,6.576,8.068,8.068,0,0,1-3.562,6.576c-.547.366-.64.549-.64,1.1v4.841c0,1.1.457,1.462,1.736,1.187l4.932-1.1a1.18,1.18,0,0,0,1.1-1.37v-5.077c1.953,4.6,6.231,7.635,12.24,7.635a16.416,16.416,0,0,0,6.485-1.279c1.279-.547,1.187-1.1.913-1.736l-1.37-3.47c-.275-.732-.64-.823-1.462-.64a17.505,17.505,0,0,1-3.745.457c-4.019,0-6.668-1.919-7.125-4.842h18.361v20.1c0,1.1.456,1.462,1.734,1.187l4.932-1.095a1.181,1.181,0,0,0,1.1-1.371V215.583a11.222,11.222,0,0,0,7.764,3.087c7.125,0,12.514-5.938,12.514-13.793C173.784,196.931,168.4,190.993,161.271,190.993Zm-33.888,10.87c.366-2.558,3.106-4.476,6.3-4.476s5.936,1.917,6.3,4.476ZM160.083,212c-3.745,0-6.577-3.106-6.577-7.125,0-4.11,2.832-7.216,6.577-7.216,3.653,0,6.393,3.106,6.393,7.216C166.476,208.9,163.737,212,160.083,212ZM103.817,181.22l-4.932,1.1a1.181,1.181,0,0,0-1.1,1.37v15.452a12.55,12.55,0,0,0-12.057-8.144c-7.672,0-13.427,5.938-13.427,13.884a16.9,16.9,0,0,0,.359,3.514,10.366,10.366,0,0,1-7.574,3.7,7.216,7.216,0,0,1,0-14.431,15,15,0,0,1,3.836.548c.731.183,1.006.092,1.462-.821l1.551-3.38a.843.843,0,0,0-.364-1.279,17.63,17.63,0,0,0-7.4-1.736,13.839,13.839,0,1,0,.183,27.676,15.743,15.743,0,0,0,10.935-4.611,12.932,12.932,0,0,0,10.438,4.611,16.416,16.416,0,0,0,6.485-1.279c1.279-.547,1.187-1.1.913-1.736l-1.37-3.47c-.274-.732-.64-.823-1.461-.64a17.5,17.5,0,0,1-3.745.457c-4.019,0-6.668-1.919-7.125-4.842h18.36v10.23c0,1.1.456,1.462,1.736,1.187l4.932-1.1a1.18,1.18,0,0,0,1.1-1.37v-3.562c0-.547-.092-.73-.64-1.1a8.067,8.067,0,0,1-3.562-6.576,7.943,7.943,0,0,1,3.562-6.576c.547-.366.64-.549.64-1.1v-14.8C105.553,181.312,105.1,180.946,103.817,181.22ZM79.429,201.863c.366-2.558,3.106-4.476,6.3-4.476s5.938,1.917,6.3,4.476Z" transform="translate(-50.292 -181.133)" fill="#fff"/>
    <path id="Caminho_4" data-name="Caminho 4" d="M161.271,190.993a11.19,11.19,0,0,0-7.764,3.094v-1.815c0-1.1-.457-1.462-1.734-1.189l-4.932,1.1a1.181,1.181,0,0,0-1.1,1.37v5.587a12.551,12.551,0,0,0-12.057-8.144,13.062,13.062,0,0,0-12.24,7.956V182.408c0-1.1-.457-1.462-1.736-1.188l-4.932,1.1a1.181,1.181,0,0,0-1.1,1.37V197.2c0,.548.092.73.64,1.1a7.944,7.944,0,0,1,3.562,6.576,8.068,8.068,0,0,1-3.562,6.576c-.547.366-.64.549-.64,1.1v4.841c0,1.1.457,1.462,1.736,1.187l4.932-1.1a1.18,1.18,0,0,0,1.1-1.37v-5.077c1.953,4.6,6.231,7.635,12.24,7.635a16.416,16.416,0,0,0,6.485-1.279c1.279-.547,1.187-1.1.913-1.736l-1.37-3.47c-.275-.732-.64-.823-1.462-.64a17.505,17.505,0,0,1-3.745.457c-4.019,0-6.668-1.919-7.125-4.842h18.361v20.1c0,1.1.456,1.462,1.734,1.187l4.932-1.095a1.181,1.181,0,0,0,1.1-1.371V215.583a11.222,11.222,0,0,0,7.764,3.087c7.125,0,12.514-5.938,12.514-13.793C173.784,196.931,168.4,190.993,161.271,190.993Zm-33.888,10.87c.366-2.558,3.106-4.476,6.3-4.476s5.936,1.917,6.3,4.476ZM160.083,212c-3.745,0-6.577-3.106-6.577-7.125,0-4.11,2.832-7.216,6.577-7.216,3.653,0,6.393,3.106,6.393,7.216C166.476,208.9,163.737,212,160.083,212ZM103.817,181.22l-4.932,1.1a1.181,1.181,0,0,0-1.1,1.37v15.452a12.55,12.55,0,0,0-12.057-8.144c-7.672,0-13.427,5.938-13.427,13.884a16.9,16.9,0,0,0,.359,3.514,10.366,10.366,0,0,1-7.574,3.7,7.216,7.216,0,0,1,0-14.431,15,15,0,0,1,3.836.548c.731.183,1.006.092,1.462-.821l1.551-3.38a.843.843,0,0,0-.364-1.279,17.63,17.63,0,0,0-7.4-1.736,13.839,13.839,0,1,0,.183,27.676,15.743,15.743,0,0,0,10.935-4.611,12.932,12.932,0,0,0,10.438,4.611,16.416,16.416,0,0,0,6.485-1.279c1.279-.547,1.187-1.1.913-1.736l-1.37-3.47c-.274-.732-.64-.823-1.461-.64a17.5,17.5,0,0,1-3.745.457c-4.019,0-6.668-1.919-7.125-4.842h18.36v10.23c0,1.1.456,1.462,1.736,1.187l4.932-1.1a1.18,1.18,0,0,0,1.1-1.37v-3.562c0-.547-.092-.73-.64-1.1a8.067,8.067,0,0,1-3.562-6.576,7.943,7.943,0,0,1,3.562-6.576c.547-.366.64-.549.64-1.1v-14.8C105.553,181.312,105.1,180.946,103.817,181.22ZM79.429,201.863c.366-2.558,3.106-4.476,6.3-4.476s5.938,1.917,6.3,4.476Z" transform="translate(-50.292 -181.133)" fill="#fff"/>
    <path id="Caminho_5" data-name="Caminho 5" d="M161.271,190.993a11.19,11.19,0,0,0-7.764,3.094v-1.815c0-1.1-.457-1.462-1.734-1.189l-4.932,1.1a1.181,1.181,0,0,0-1.1,1.37v5.587a12.551,12.551,0,0,0-12.057-8.144,13.062,13.062,0,0,0-12.24,7.956V182.408c0-1.1-.457-1.462-1.736-1.188l-4.932,1.1a1.181,1.181,0,0,0-1.1,1.37V197.2c0,.548.092.73.64,1.1a7.944,7.944,0,0,1,3.562,6.576,8.068,8.068,0,0,1-3.562,6.576c-.547.366-.64.549-.64,1.1v4.841c0,1.1.457,1.462,1.736,1.187l4.932-1.1a1.18,1.18,0,0,0,1.1-1.37v-5.077c1.953,4.6,6.231,7.635,12.24,7.635a16.416,16.416,0,0,0,6.485-1.279c1.279-.547,1.187-1.1.913-1.736l-1.37-3.47c-.275-.732-.64-.823-1.462-.64a17.505,17.505,0,0,1-3.745.457c-4.019,0-6.668-1.919-7.125-4.842h18.361v20.1c0,1.1.456,1.462,1.734,1.187l4.932-1.095a1.181,1.181,0,0,0,1.1-1.371V215.583a11.222,11.222,0,0,0,7.764,3.087c7.125,0,12.514-5.938,12.514-13.793C173.784,196.931,168.4,190.993,161.271,190.993Zm-33.888,10.87c.366-2.558,3.106-4.476,6.3-4.476s5.936,1.917,6.3,4.476ZM160.083,212c-3.745,0-6.577-3.106-6.577-7.125,0-4.11,2.832-7.216,6.577-7.216,3.653,0,6.393,3.106,6.393,7.216C166.476,208.9,163.737,212,160.083,212ZM103.817,181.22l-4.932,1.1a1.181,1.181,0,0,0-1.1,1.37v15.452a12.55,12.55,0,0,0-12.057-8.144c-7.672,0-13.427,5.938-13.427,13.884a16.9,16.9,0,0,0,.359,3.514,10.366,10.366,0,0,1-7.574,3.7,7.216,7.216,0,0,1,0-14.431,15,15,0,0,1,3.836.548c.731.183,1.006.092,1.462-.821l1.551-3.38a.843.843,0,0,0-.364-1.279,17.63,17.63,0,0,0-7.4-1.736,13.839,13.839,0,1,0,.183,27.676,15.743,15.743,0,0,0,10.935-4.611,12.932,12.932,0,0,0,10.438,4.611,16.416,16.416,0,0,0,6.485-1.279c1.279-.547,1.187-1.1.913-1.736l-1.37-3.47c-.274-.732-.64-.823-1.461-.64a17.5,17.5,0,0,1-3.745.457c-4.019,0-6.668-1.919-7.125-4.842h18.36v10.23c0,1.1.456,1.462,1.736,1.187l4.932-1.1a1.18,1.18,0,0,0,1.1-1.37v-3.562c0-.547-.092-.73-.64-1.1a8.067,8.067,0,0,1-3.562-6.576,7.943,7.943,0,0,1,3.562-6.576c.547-.366.64-.549.64-1.1v-14.8C105.553,181.312,105.1,180.946,103.817,181.22ZM79.429,201.863c.366-2.558,3.106-4.476,6.3-4.476s5.938,1.917,6.3,4.476Z" transform="translate(-50.292 -181.133)" fill="#fff"/>
    <path id="Caminho_6" data-name="Caminho 6" d="M161.271,190.993a11.19,11.19,0,0,0-7.764,3.094v-1.815c0-1.1-.457-1.462-1.734-1.189l-4.932,1.1a1.181,1.181,0,0,0-1.1,1.37v5.587a12.551,12.551,0,0,0-12.057-8.144,13.062,13.062,0,0,0-12.24,7.956V182.408c0-1.1-.457-1.462-1.736-1.188l-4.932,1.1a1.181,1.181,0,0,0-1.1,1.37V197.2c0,.548.092.73.64,1.1a7.944,7.944,0,0,1,3.562,6.576,8.068,8.068,0,0,1-3.562,6.576c-.547.366-.64.549-.64,1.1v4.841c0,1.1.457,1.462,1.736,1.187l4.932-1.1a1.18,1.18,0,0,0,1.1-1.37v-5.077c1.953,4.6,6.231,7.635,12.24,7.635a16.416,16.416,0,0,0,6.485-1.279c1.279-.547,1.187-1.1.913-1.736l-1.37-3.47c-.275-.732-.64-.823-1.462-.64a17.505,17.505,0,0,1-3.745.457c-4.019,0-6.668-1.919-7.125-4.842h18.361v20.1c0,1.1.456,1.462,1.734,1.187l4.932-1.095a1.181,1.181,0,0,0,1.1-1.371V215.583a11.222,11.222,0,0,0,7.764,3.087c7.125,0,12.514-5.938,12.514-13.793C173.784,196.931,168.4,190.993,161.271,190.993Zm-33.888,10.87c.366-2.558,3.106-4.476,6.3-4.476s5.936,1.917,6.3,4.476ZM160.083,212c-3.745,0-6.577-3.106-6.577-7.125,0-4.11,2.832-7.216,6.577-7.216,3.653,0,6.393,3.106,6.393,7.216C166.476,208.9,163.737,212,160.083,212ZM103.817,181.22l-4.932,1.1a1.181,1.181,0,0,0-1.1,1.37v15.452a12.55,12.55,0,0,0-12.057-8.144c-7.672,0-13.427,5.938-13.427,13.884a16.9,16.9,0,0,0,.359,3.514,10.366,10.366,0,0,1-7.574,3.7,7.216,7.216,0,0,1,0-14.431,15,15,0,0,1,3.836.548c.731.183,1.006.092,1.462-.821l1.551-3.38a.843.843,0,0,0-.364-1.279,17.63,17.63,0,0,0-7.4-1.736,13.839,13.839,0,1,0,.183,27.676,15.743,15.743,0,0,0,10.935-4.611,12.932,12.932,0,0,0,10.438,4.611,16.416,16.416,0,0,0,6.485-1.279c1.279-.547,1.187-1.1.913-1.736l-1.37-3.47c-.274-.732-.64-.823-1.461-.64a17.5,17.5,0,0,1-3.745.457c-4.019,0-6.668-1.919-7.125-4.842h18.36v10.23c0,1.1.456,1.462,1.736,1.187l4.932-1.1a1.18,1.18,0,0,0,1.1-1.37v-3.562c0-.547-.092-.73-.64-1.1a8.067,8.067,0,0,1-3.562-6.576,7.943,7.943,0,0,1,3.562-6.576c.547-.366.64-.549.64-1.1v-14.8C105.553,181.312,105.1,180.946,103.817,181.22ZM79.429,201.863c.366-2.558,3.106-4.476,6.3-4.476s5.938,1.917,6.3,4.476Z" transform="translate(-50.292 -181.133)" fill="#fff"/>
    <path id="Caminho_7" data-name="Caminho 7" d="M161.271,190.993a11.19,11.19,0,0,0-7.764,3.094v-1.815c0-1.1-.457-1.462-1.734-1.189l-4.932,1.1a1.181,1.181,0,0,0-1.1,1.37v5.587a12.551,12.551,0,0,0-12.057-8.144,13.062,13.062,0,0,0-12.24,7.956V182.408c0-1.1-.457-1.462-1.736-1.188l-4.932,1.1a1.181,1.181,0,0,0-1.1,1.37V197.2c0,.548.092.73.64,1.1a7.944,7.944,0,0,1,3.562,6.576,8.068,8.068,0,0,1-3.562,6.576c-.547.366-.64.549-.64,1.1v4.841c0,1.1.457,1.462,1.736,1.187l4.932-1.1a1.18,1.18,0,0,0,1.1-1.37v-5.077c1.953,4.6,6.231,7.635,12.24,7.635a16.416,16.416,0,0,0,6.485-1.279c1.279-.547,1.187-1.1.913-1.736l-1.37-3.47c-.275-.732-.64-.823-1.462-.64a17.505,17.505,0,0,1-3.745.457c-4.019,0-6.668-1.919-7.125-4.842h18.361v20.1c0,1.1.456,1.462,1.734,1.187l4.932-1.095a1.181,1.181,0,0,0,1.1-1.371V215.583a11.222,11.222,0,0,0,7.764,3.087c7.125,0,12.514-5.938,12.514-13.793C173.784,196.931,168.4,190.993,161.271,190.993Zm-33.888,10.87c.366-2.558,3.106-4.476,6.3-4.476s5.936,1.917,6.3,4.476ZM160.083,212c-3.745,0-6.577-3.106-6.577-7.125,0-4.11,2.832-7.216,6.577-7.216,3.653,0,6.393,3.106,6.393,7.216C166.476,208.9,163.737,212,160.083,212ZM103.817,181.22l-4.932,1.1a1.181,1.181,0,0,0-1.1,1.37v15.452a12.55,12.55,0,0,0-12.057-8.144c-7.672,0-13.427,5.938-13.427,13.884a16.9,16.9,0,0,0,.359,3.514,10.366,10.366,0,0,1-7.574,3.7,7.216,7.216,0,0,1,0-14.431,15,15,0,0,1,3.836.548c.731.183,1.006.092,1.462-.821l1.551-3.38a.843.843,0,0,0-.364-1.279,17.63,17.63,0,0,0-7.4-1.736,13.839,13.839,0,1,0,.183,27.676,15.743,15.743,0,0,0,10.935-4.611,12.932,12.932,0,0,0,10.438,4.611,16.416,16.416,0,0,0,6.485-1.279c1.279-.547,1.187-1.1.913-1.736l-1.37-3.47c-.274-.732-.64-.823-1.461-.64a17.5,17.5,0,0,1-3.745.457c-4.019,0-6.668-1.919-7.125-4.842h18.36v10.23c0,1.1.456,1.462,1.736,1.187l4.932-1.1a1.18,1.18,0,0,0,1.1-1.37v-3.562c0-.547-.092-.73-.64-1.1a8.067,8.067,0,0,1-3.562-6.576,7.943,7.943,0,0,1,3.562-6.576c.547-.366.64-.549.64-1.1v-14.8C105.553,181.312,105.1,180.946,103.817,181.22ZM79.429,201.863c.366-2.558,3.106-4.476,6.3-4.476s5.938,1.917,6.3,4.476Z" transform="translate(-50.292 -181.133)" fill="#fff"/>
    <path id="Caminho_8" data-name="Caminho 8" d="M161.271,190.993a11.19,11.19,0,0,0-7.764,3.094v-1.815c0-1.1-.457-1.462-1.734-1.189l-4.932,1.1a1.181,1.181,0,0,0-1.1,1.37v5.587a12.551,12.551,0,0,0-12.057-8.144,13.062,13.062,0,0,0-12.24,7.956V182.408c0-1.1-.457-1.462-1.736-1.188l-4.932,1.1a1.181,1.181,0,0,0-1.1,1.37V197.2c0,.548.092.73.64,1.1a7.944,7.944,0,0,1,3.562,6.576,8.068,8.068,0,0,1-3.562,6.576c-.547.366-.64.549-.64,1.1v4.841c0,1.1.457,1.462,1.736,1.187l4.932-1.1a1.18,1.18,0,0,0,1.1-1.37v-5.077c1.953,4.6,6.231,7.635,12.24,7.635a16.416,16.416,0,0,0,6.485-1.279c1.279-.547,1.187-1.1.913-1.736l-1.37-3.47c-.275-.732-.64-.823-1.462-.64a17.505,17.505,0,0,1-3.745.457c-4.019,0-6.668-1.919-7.125-4.842h18.361v20.1c0,1.1.456,1.462,1.734,1.187l4.932-1.095a1.181,1.181,0,0,0,1.1-1.371V215.583a11.222,11.222,0,0,0,7.764,3.087c7.125,0,12.514-5.938,12.514-13.793C173.784,196.931,168.4,190.993,161.271,190.993Zm-33.888,10.87c.366-2.558,3.106-4.476,6.3-4.476s5.936,1.917,6.3,4.476ZM160.083,212c-3.745,0-6.577-3.106-6.577-7.125,0-4.11,2.832-7.216,6.577-7.216,3.653,0,6.393,3.106,6.393,7.216C166.476,208.9,163.737,212,160.083,212ZM103.817,181.22l-4.932,1.1a1.181,1.181,0,0,0-1.1,1.37v15.452a12.55,12.55,0,0,0-12.057-8.144c-7.672,0-13.427,5.938-13.427,13.884a16.9,16.9,0,0,0,.359,3.514,10.366,10.366,0,0,1-7.574,3.7,7.216,7.216,0,0,1,0-14.431,15,15,0,0,1,3.836.548c.731.183,1.006.092,1.462-.821l1.551-3.38a.843.843,0,0,0-.364-1.279,17.63,17.63,0,0,0-7.4-1.736,13.839,13.839,0,1,0,.183,27.676,15.743,15.743,0,0,0,10.935-4.611,12.932,12.932,0,0,0,10.438,4.611,16.416,16.416,0,0,0,6.485-1.279c1.279-.547,1.187-1.1.913-1.736l-1.37-3.47c-.274-.732-.64-.823-1.461-.64a17.5,17.5,0,0,1-3.745.457c-4.019,0-6.668-1.919-7.125-4.842h18.36v10.23c0,1.1.456,1.462,1.736,1.187l4.932-1.1a1.18,1.18,0,0,0,1.1-1.37v-3.562c0-.547-.092-.73-.64-1.1a8.067,8.067,0,0,1-3.562-6.576,7.943,7.943,0,0,1,3.562-6.576c.547-.366.64-.549.64-1.1v-14.8C105.553,181.312,105.1,180.946,103.817,181.22ZM79.429,201.863c.366-2.558,3.106-4.476,6.3-4.476s5.938,1.917,6.3,4.476Z" transform="translate(-50.292 -181.133)" fill="#fff"/>
  </g>
</svg>
